<?xml version="1.0" standalone="no"?>
<!DOCTYPE svg PUBLIC "-//W3C//DTD SVG 20010904//EN"
 "http://www.w3.org/TR/2001/REC-SVG-20010904/DTD/svg10.dtd">
<svg version="1.0" xmlns="http://www.w3.org/2000/svg"
 width="2944.000000pt" height="2944.000000pt" viewBox="0 0 2944.000000 2944.000000"
 preserveAspectRatio="xMidYMid meet">
<metadata>
Created by potrace 1.14, written by Peter Selinger 2001-2017
</metadata>
<g transform="translate(0.000000,2944.000000) scale(0.100000,-0.100000)"
fill="#000000" stroke="none">
<path d="M20457 29434 c-1 -1 -39 -5 -84 -8 -46 -4 -91 -9 -100 -10 -10 -2
-43 -7 -73 -10 -30 -4 -66 -8 -80 -11 -14 -2 -54 -9 -90 -15 -462 -74 -1058
-253 -1500 -451 -142 -64 -465 -228 -590 -300 -410 -236 -859 -566 -1181 -869
-284 -267 -501 -506 -772 -850 -290 -367 -627 -920 -822 -1350 -36 -80 -70
-154 -75 -165 -67 -141 -226 -596 -269 -770 -5 -22 -19 -74 -30 -115 -20 -72
-74 -323 -86 -404 -4 -21 -9 -48 -11 -60 -2 -11 -7 -43 -10 -71 -4 -27 -8 -52
-9 -55 -2 -3 -7 -44 -10 -90 -4 -47 -9 -88 -11 -91 -9 -16 -19 -255 -19 -474
0 -216 4 -303 19 -425 22 -174 19 -166 59 -175 50 -10 604 -15 677 -5 36 4 97
11 135 15 142 14 467 73 605 110 8 3 35 9 60 15 164 39 563 182 765 275 205
94 454 229 640 346 358 227 690 496 1025 829 208 208 304 314 524 580 62 76
258 342 338 460 362 531 665 1155 844 1735 14 44 32 102 40 129 31 100 88 329
120 481 16 80 25 123 29 145 3 14 7 36 9 50 3 14 8 43 11 65 3 22 7 47 10 55
5 19 12 70 20 145 4 33 8 67 10 75 2 8 7 44 10 80 3 36 8 83 10 105 21 195 28
713 12 885 -11 119 -17 173 -22 188 -3 8 -23 11 -66 10 -33 -2 -61 -4 -62 -4z"/>
<path d="M19879 22356 c-2 -2 -58 -7 -124 -10 -66 -4 -131 -8 -145 -11 -14 -2
-61 -6 -105 -9 -44 -3 -89 -8 -100 -10 -11 -2 -45 -7 -76 -10 -31 -4 -67 -9
-80 -11 -13 -3 -42 -7 -64 -10 -59 -6 -267 -43 -370 -65 -49 -10 -101 -21
-115 -24 -142 -27 -491 -116 -670 -171 -47 -15 -92 -28 -101 -30 -25 -5 -560
-185 -594 -200 -16 -7 -111 -43 -210 -80 -99 -37 -193 -73 -210 -80 -16 -7
-79 -32 -140 -55 -60 -24 -123 -49 -140 -56 -65 -28 -550 -220 -720 -284 -249
-94 -494 -173 -630 -201 -33 -7 -64 -14 -70 -15 -125 -28 -329 -37 -478 -20
-66 7 -256 39 -307 51 -14 3 -34 8 -46 10 -150 32 -827 258 -999 334 -23 11
-58 24 -65 25 -9 2 -101 38 -142 56 -29 12 -319 122 -563 212 -181 67 -729
252 -777 262 -13 3 -45 12 -73 21 -41 13 -357 97 -413 110 -100 23 -346 76
-376 81 -21 3 -48 8 -60 10 -26 6 -325 51 -386 58 -99 12 -138 16 -190 20 -30
2 -100 8 -155 12 -191 15 -773 8 -886 -11 -13 -2 -58 -6 -99 -9 -41 -3 -86 -8
-100 -10 -14 -3 -47 -7 -75 -11 -66 -8 -345 -54 -367 -61 -9 -3 -27 -7 -40 -9
-13 -3 -45 -9 -73 -15 -27 -6 -59 -12 -70 -14 -11 -3 -90 -23 -176 -45 -603
-157 -1194 -411 -1754 -754 -109 -67 -314 -201 -350 -230 -5 -4 -57 -42 -115
-84 -407 -296 -767 -627 -1170 -1078 -154 -172 -423 -522 -565 -735 -28 -41
-53 -77 -56 -80 -9 -8 -239 -379 -239 -386 0 -3 -8 -18 -19 -32 -10 -15 -35
-58 -56 -97 -21 -38 -53 -97 -72 -130 -41 -74 -263 -520 -263 -529 0 -4 -13
-34 -30 -69 -80 -169 -221 -529 -312 -797 -33 -96 -61 -183 -63 -193 -2 -9 -6
-20 -9 -25 -17 -29 -167 -585 -221 -822 -57 -252 -134 -676 -160 -878 -5 -42
-15 -108 -20 -142 -5 -30 -16 -122 -20 -170 -2 -19 -6 -53 -9 -75 -3 -22 -8
-69 -11 -105 -3 -36 -8 -87 -11 -115 -7 -72 -14 -159 -29 -370 -13 -192 -20
-459 -20 -830 1 -372 4 -521 20 -805 7 -118 30 -400 40 -490 2 -19 7 -64 10
-100 2 -36 7 -74 9 -85 2 -11 7 -54 11 -95 8 -87 10 -101 25 -213 6 -45 13
-95 15 -112 4 -27 17 -118 31 -215 3 -19 7 -46 10 -60 2 -14 9 -54 14 -90 10
-64 16 -101 25 -150 3 -14 8 -42 11 -64 3 -21 8 -48 10 -60 2 -11 7 -37 10
-56 2 -19 11 -64 19 -100 8 -36 17 -81 20 -100 5 -32 18 -100 30 -160 3 -14
10 -47 15 -75 6 -27 12 -59 15 -70 2 -11 11 -54 20 -95 72 -337 204 -854 312
-1225 31 -104 59 -204 63 -221 4 -18 10 -37 14 -43 4 -6 9 -19 11 -28 7 -36
158 -508 175 -548 5 -11 26 -74 48 -140 48 -142 87 -255 109 -310 33 -87 44
-115 93 -248 48 -130 176 -456 205 -522 7 -16 43 -102 80 -190 37 -88 76 -180
87 -205 11 -25 29 -65 40 -90 11 -25 26 -58 33 -75 8 -16 38 -84 68 -150 109
-242 145 -316 309 -645 376 -752 708 -1329 1128 -1960 125 -187 378 -551 422
-605 4 -5 54 -71 110 -145 104 -138 196 -254 347 -440 99 -121 95 -116 301
-350 323 -365 780 -800 1122 -1065 45 -35 88 -68 93 -73 6 -4 51 -37 100 -72
50 -36 92 -67 95 -70 13 -14 296 -193 395 -250 425 -245 906 -421 1272 -465
26 -3 64 -8 83 -12 72 -11 398 -10 495 2 125 16 347 56 386 70 8 2 26 6 40 9
14 2 61 14 103 26 43 12 85 23 94 25 74 17 537 169 772 255 63 23 120 43 125
44 6 2 17 6 25 9 8 4 60 23 115 42 55 20 136 49 180 64 601 215 937 325 1240
407 136 37 420 105 493 119 13 2 31 6 40 9 9 3 35 7 57 11 22 3 47 7 55 10 16
4 71 13 130 21 19 2 60 8 90 14 62 10 117 17 285 35 200 22 598 22 795 0 19
-2 64 -7 100 -10 106 -10 289 -38 368 -56 23 -5 59 -12 78 -15 39 -6 60 -10
97 -20 12 -3 41 -10 64 -14 141 -30 511 -139 746 -220 233 -80 298 -103 612
-220 679 -253 946 -342 1290 -431 140 -36 293 -70 375 -84 19 -3 60 -10 90
-15 76 -13 137 -21 250 -35 230 -27 688 -22 817 10 12 3 41 7 65 10 55 7 268
55 288 65 8 4 38 13 65 19 47 11 195 62 240 81 11 5 65 28 120 51 296 123 687
358 980 590 153 122 261 213 405 343 80 73 412 408 506 511 82 89 127 141 279
320 23 28 71 86 106 130 35 44 66 82 69 85 3 3 42 52 86 110 43 58 81 107 84
110 3 3 30 39 60 80 30 41 57 77 60 80 14 11 316 448 424 613 119 180 304 474
367 581 18 32 41 70 50 85 83 134 290 498 371 651 28 52 59 109 68 125 109
187 445 857 637 1270 36 77 80 172 98 210 18 39 33 73 34 77 1 4 22 51 47 105
68 147 66 142 164 373 95 225 115 272 130 305 37 82 283 710 300 766 7 25 4
27 -79 64 -504 223 -1154 639 -1612 1034 -13 11 -35 29 -48 41 -94 80 -208
187 -346 325 -144 143 -188 190 -315 331 -198 218 -516 652 -665 906 -124 211
-296 542 -365 703 -49 114 -70 164 -70 169 0 4 -8 25 -19 49 -10 23 -24 58
-31 77 -7 19 -16 44 -20 55 -42 98 -170 528 -205 684 -2 9 -13 59 -25 111 -12
52 -24 106 -26 120 -3 14 -9 48 -14 75 -17 83 -19 97 -25 140 -4 22 -12 81
-20 130 -8 50 -17 118 -20 152 -4 35 -9 75 -11 90 -3 32 -14 146 -19 213 -28
345 -22 955 11 1220 3 25 7 65 10 90 10 115 38 308 60 430 9 47 18 96 21 110
4 26 61 281 69 313 2 9 6 25 8 35 2 9 9 37 16 62 7 25 14 52 16 60 18 78 119
391 161 500 266 694 567 1223 1007 1770 221 275 525 592 790 825 16 14 157
134 181 154 125 102 359 275 485 357 41 27 77 52 80 55 3 3 10 8 15 10 31 12
225 134 225 141 0 13 -76 132 -169 262 -309 437 -784 925 -1221 1256 -47 35
-87 67 -90 70 -8 9 -240 170 -330 230 -8 5 -31 20 -50 33 -317 210 -819 464
-1200 607 -47 18 -105 40 -130 50 -137 54 -586 188 -755 225 -11 2 -51 11 -90
20 -102 23 -205 44 -245 50 -19 3 -55 10 -80 15 -25 5 -61 12 -80 15 -19 2
-82 12 -140 21 -57 8 -120 17 -140 20 -19 2 -55 6 -80 9 -121 14 -195 21 -325
31 -44 3 -100 8 -125 10 -51 6 -796 15 -801 10z"/>
</g>
</svg>
